# Alias OBJ Model File
# Exported from SketchUp, (c) 2000-2012 Trimble Navigation Limited
# File units = meters

mtllib Reference.mtl

g Mesh1 Model

usemtl FrontColor
v 0 0 -0.3
vt -11.811 0
vn -1 0 -0
v 0 0 -0
vt 0 0
v 0 1.8 -0
vt 0 70.8661
v 0 1.8 -0.3
vt -11.811 70.8661
f 1/1/1 2/2/1 3/3/1 4/4/1 

v 0.4 0 -0
vt -15.748 0
vn 0 -1 -0
vt 0 11.811
v 0.3 0 -0.3
vt -11.811 11.811
v 0.4 0 -0.3
vt -15.748 11.811
f 5/5/2 2/2/2 1/6/2 6/7/2 7/8/2 

v 0.4 1.8 -0
vt 15.748 70.8661
vn 0 0 1
vt 15.748 0
f 8/9/3 3/3/3 2/2/3 5/10/3 

vt 15.748 -4.26326e-14
vn -4.51195e-16 1 -6.01593e-16
v 0.4 1.8 -0.3
vt 15.748 11.811
vt 3.19744e-14 11.811
vt 3.19744e-14 -4.26326e-14
f 8/11/4 9/12/4 4/13/4 3/14/4 

vt 11.811 0
vn 1 0 -0
vt 11.811 70.8661
f 7/15/5 9/16/5 8/3/5 5/2/5 

vt -15.748 70.8661
vn 0 0 -1
f 9/17/6 7/5/6 6/1/6 1/2/6 4/3/6 

